<?xml version="1.0" encoding="UTF-8" standalone="no"?>
<!-- Created with Inkscape (http://www.inkscape.org/) -->

<svg
   viewBox="0 0 521 478.99999"
   version="1.1"
   id="svg1"
   xml:space="preserve"
   xmlns="http://www.w3.org/2000/svg"
   xmlns:svg="http://www.w3.org/2000/svg"><defs
     id="defs1" /><g
     id="layer1"
     transform="translate(1.0776522,-61.251556)"><ellipse
       style="fill:#000000;stroke-width:1.09646"
       id="coliculo_superior_derecho"
       ry="20.807453"
       rx="27.639751"
       cy="130.74535"
       cx="194.09938" /><ellipse
       style="fill:#000000;stroke-width:1.09646"
       id="coliculo_superior_izquierdo"
       ry="20.807453"
       rx="27.639751"
       cy="134.95651"
       cx="326.69565" /><path
       style="fill:#000000"
       d="m 380.74535,191.30434 -6.21118,16.14907 14.90683,42.85714 -21.11801,34.16149 13.04347,35.40373 13.6646,6.8323 17.3913,-26.70808 3.72671,-41.6149 L 400,203.7267 Z"
       id="lemniscos_izquierdos" /><path
       style="fill:#000000"
       d="m 141.61491,190.68323 -16.14907,8.69565 -14.90683,34.78261 -4.96894,21.73913 0.62111,32.91925 4.34783,16.77019 14.90683,16.77018 h 10.55901 l 18.63354,-36.64596 -5.59006,-14.90683 -16.77019,-26.70808 1.86335,-18.01242 13.6646,-22.36025 z"
       id="lemniscos_derechos" /><path
       style="fill:#000000"
       id="fasciculo_longitudinal_medial_derecho"
       d="m 216.14907,258.07452 a 13.043478,11.490684 0 0 1 -12.38365,11.47598 13.043478,11.490684 0 0 1 -13.63655,-10.31491 13.043478,11.490684 0 0 1 11.004,-12.51957 13.043478,11.490684 0 0 1 14.74986,9.04826" /><path
       style="fill:#000000"
       id="fasciculo_longitudinal_medial_izquierdo"
       d="m 328.75155,260.47205 a 13.043478,11.490684 0 0 1 -12.38366,11.47597 13.043478,11.490684 0 0 1 -13.63654,-10.31491 13.043478,11.490684 0 0 1 11.004,-12.51957 13.043478,11.490684 0 0 1 14.74985,9.04827" /><path
       style="fill:#000000"
       id="nucleo_rojo_derecho"
       d="m 239.75156,329.81366 a 48.136646,45.962734 0 0 1 -45.70157,45.90389 48.136646,45.962734 0 0 1 -50.32536,-41.25964 48.136646,45.962734 0 0 1 40.60999,-50.07826 48.136646,45.962734 0 0 1 54.434,36.19305" /><path
       style="fill:#000000"
       id="nucleo_rojo_izquierdo"
       d="m 366.37889,328.68945 a 48.136646,45.962734 0 0 1 -45.70157,45.90389 48.136646,45.962734 0 0 1 -50.32535,-41.25964 48.136646,45.962734 0 0 1 40.60999,-50.07826 48.136646,45.962734 0 0 1 54.434,36.19306" /><path
       style="fill:#000000;stroke-width:1.04247"
       id="nucleo_derecho_del_nervio_oculomotor"
       d="m 156.35234,264.0332 a 14.906833,18.174999 0 0 1 -14.15274,18.15173 14.906833,18.174999 0 0 1 -15.58463,-16.31526 14.906833,18.174999 0 0 1 12.576,-19.80239 14.906833,18.174999 0 0 1 16.85698,14.31178"
       transform="matrix(1,0,0.34174306,0.93979342,0,0)" /><path
       style="fill:#000000;stroke-width:1.04247"
       id="nucleo_izquierdo_del_nervio_oculomotor"
       d="m 406.11344,-224.70271 a 14.906833,18.174999 0 0 1 -14.15275,18.15173 14.906833,18.174999 0 0 1 -15.58463,-16.31526 14.906833,18.174999 0 0 1 12.576,-19.8024 14.906833,18.174999 0 0 1 16.85698,14.31178"
       transform="matrix(0.27002476,0.96285338,-0.81260419,0.58281595,0,0)" /><path
       style="fill:#000000"
       d="m 197.51552,176.39752 4.96895,14.28571 -6.21118,7.45342 -8.07454,2.48447 1.24224,-19.87578 z"
       id="nucleo_mesencefalico_del_trigemino_derecho" /><path
       style="fill:#000000"
       d="m 322.36024,172.67082 -4.96894,11.18012 11.80124,14.28571 2.48447,0.62112 -1.86335,-13.66459 z"
       id="nucleo_mesencefalico_del_trigemino_izquierdo" /><path
       style="fill:#00ff00"
       d="m 183.85093,200.62112 22.36025,27.95031 8.07453,8.69566 1.86336,-9.93789 h 8.07453 l 10.55901,4.96894 12.42236,12.42236 -1.24224,14.90683 -4.34782,2.48448 10.559,5.59006 22.36025,-2.48447 4.96895,-1.86336 -3.10559,-9.93789 v -12.42236 l 13.66459,-14.90683 10.55901,0.62112 4.96894,4.34783 25.46584,-29.81367 -13.04348,-6.8323 -1.86335,-11.18012 5.59006,-8.69565 -13.04348,-9.93789 -29.81366,-14.90683 H 244.7205 l -26.08696,6.83229 -16.14907,9.93789 -11.80124,9.31677 10.55901,-2.48447 4.34782,18.63354 -14.28571,9.31677 z"
       id="sustancia_gris_central" /><path
       style="fill:#000000"
       d="m 75.155279,235.40373 20.496895,45.34162 9.937896,50.93167 4.34783,15.52795 26.08695,41.61491 17.39131,13.6646 29.19254,11.18012 34.16149,19.25466 -15.52795,18.01242 -33.54037,-14.90683 -25.46584,-1.24224 -29.19254,-17.3913 L 101.86335,376.39752 76.397515,344.7205 59.627329,262.11181 Z"
       id="sustancia_negra_derecha" /><path
       style="fill:#000000"
       d="m 296.2733,440.99379 36.64596,-20.49689 29.19255,-10.55901 23.60248,-21.73913 18.63354,-35.40372 27.32919,-95.03106 11.18013,-10.55901 16.77018,26.08696 -14.28571,32.29814 -8.69565,40.99379 -9.93789,33.54037 -19.87578,18.63354 4.96895,8.69565 -19.25466,31.0559 -21.11801,9.31677 h -24.84473 l -42.23602,7.45342 z"
       id="sustancia_negra_izquierda" /><path
       style="fill:#000000"
       d="m 54.037267,257.76397 18.012422,81.98758 22.981367,34.16149 13.043474,42.23603 27.32919,17.3913 h 23.60249 l 37.8882,14.28572 -22.36025,45.34161 -32.29814,29.81367 -12.42236,-2.48448 -54.037262,-23.60248 -47.826087,-49.68944 -30.434783,-56.52174 0.621118,-98.13665 z"
       id="pie_del_pedunculo_derecho" /><path
       style="fill:#000000"
       d="m 465.8385,272.6708 49.06832,23.60249 3.10559,16.77018 v 80.12423 l -21.11801,44.72049 -33.54037,47.82609 -78.88199,41.61491 -36.64596,-7.45342 -41.61491,-66.45963 69.56522,-6.8323 20.49689,-9.93788 18.63354,-33.54038 -3.10559,-5.59006 20.4969,-16.77018 z"
       id="pie_del_pedunculo_izquierdo" /><g
       id="decusacion_rubroespinal"><rect
         style="fill:#000000;stroke-width:0.754611"
         id="rect18"
         width="101.36765"
         height="48.924149"
         x="-484.33612"
         y="-181.87495"
         transform="matrix(-0.82954415,-0.55844114,0.58465278,-0.81128363,0,0)" /><rect
         style="fill:#000000;stroke-width:0.754611"
         id="rect18-3"
         width="101.36765"
         height="48.924149"
         x="-148.34833"
         y="414.4996"
         transform="matrix(0.67456272,-0.73821754,0.71629456,0.69779804,0,0)" /></g></g></svg>
