<?xml version="1.0" encoding="UTF-8" standalone="no"?>
<!-- Created with Inkscape (http://www.inkscape.org/) -->

<svg
   viewBox="0 0 790 696"
   version="1.1"
   id="svg1"
   xml:space="preserve"
   xmlns="http://www.w3.org/2000/svg"
   xmlns:svg="http://www.w3.org/2000/svg"><defs
     id="defs1" /><g
     id="layer1"
     transform="translate(393,219)"><g
       id="coliculo_inferior"><ellipse
         style="fill:#000000"
         id="path1"
         cx="-32.849579"
         cy="-156.53401"
         rx="38.617886"
         ry="23.170732"
         transform="rotate(-29.855438)" /><ellipse
         style="fill:#000000"
         id="path1-5"
         cx="-26.999777"
         cy="-152.42003"
         rx="38.617886"
         ry="23.170732"
         transform="matrix(-0.86728419,-0.49781336,-0.49781336,0.86728419,0,0)" /></g><g
       id="nucleos_de_los_nervios_trocleares"><ellipse
         style="fill:#000000"
         id="path2"
         cx="-32.024384"
         cy="46.853649"
         rx="14.634147"
         ry="13.821138" /><ellipse
         style="fill:#000000"
         id="path2-1"
         cx="26.86179"
         cy="45.7561"
         rx="14.634147"
         ry="13.821138" /></g><g
       id="fasciculo_longitudinal_medial"><ellipse
         style="fill:#000000"
         id="path3"
         cx="-57.634159"
         cy="75.308952"
         rx="12.601626"
         ry="13.00813" /><ellipse
         style="fill:#000000"
         id="path3-1"
         cx="52.918705"
         cy="75.951225"
         rx="12.601626"
         ry="13.00813" /></g><g
       id="lemniscos__LTEM_"><path
         style="fill:#000000"
         d="m -174.30081,-21.43902 -9.7561,46.34146 -7.31707,32.52032 12.19512,30.89431 16.26016,25.20326 -14.63415,43.08943 -19.51219,4.87804 -26.82927,-30.0813 -8.94309,-59.34959 28.45529,-85.36585 14.63414,-13.82114 8.94309,-2.43903 z"
         id="path4" /><path
         style="fill:#000000"
         d="m 168.47154,-18.300804 9.7561,46.34146 7.31707,32.52032 -12.19512,30.89431 -16.26016,25.203264 14.63415,43.08943 19.51219,4.87804 26.82927,-30.0813 8.94309,-59.349594 -28.45529,-85.36585 -14.63414,-13.82114 -8.94309,-2.43903 z"
         id="path4-2" /></g><g
       id="sustancia_negra"><path
         style="fill:#000000"
         d="m -268.60976,37.09756 26.01626,87.80488 17.07317,56.91057 33.33334,55.28455 130.0813,102.43903 -4.06504,10.5691 -17.07317,-8.94309 -35.77236,8.13008 -39.02439,-8.13008 -52.03252,-42.27642 -22.76423,-52.84553 -21.13821,-45.52845 -21.95122,-103.25204 -17.88618,-20.3252 z"
         id="path5" /><path
         style="fill:#000000"
         d="m 260.96748,35.845528 -26.01626,87.804882 -17.07317,56.91057 -33.33334,55.28455 -130.081295,102.43903 4.06504,10.5691 17.07317,-8.94309 35.772355,8.13008 39.02439,-8.13008 52.03252,-42.27642 22.76423,-52.84553 21.13821,-45.52845 21.95122,-103.252042 17.88618,-20.3252 z"
         id="path5-7" /></g><path
       style="fill:#000000"
       d="m -297.87805,76.93496 -59.34959,27.64228 -31.70732,49.59349 v 13.00813 l -1.62602,29.26829 -0.813,29.2683 20.3252,22.76422 -0.81301,18.69919 5.69106,30.89431 56.09756,73.98374 35.77236,35.77236 17.07317,19.51219 14.63414,-2.43902 35.77236,21.13821 32.52033,-1.62602 56.09756,0.81301 56.91057,-97.56097 31.70731,-36.58537 23.57724,-50.4065 28.45528,52.03252 25.20326,24.39024 32.52032,52.03252 30.0813,56.91057 h 95.12195 l 30.0813,-25.20325 21.13822,1.62601 36.58536,-39.83739 -9.7561,-14.63415 30.08131,0.81301 52.84552,-91.86992 -4.06504,-24.39024 8.94309,-36.58537 8.94309,-20.3252 1.62602,-29.2683 -30.89431,-63.41463 -63.41464,-33.33333 -15.44715,30.0813 -20.3252,90.2439 -18.69919,46.34146 -21.95122,47.15447 -9.7561,26.01626 -45.52845,27.64228 -39.8374,13.00813 -39.02439,-8.94309 -17.88618,6.50407 -39.8374,-36.58537 -25.20325,-51.21951 -26.82927,58.53658 -29.26829,26.01626 -5.69106,6.50407 -13.82114,-8.13008 -35.77235,8.13008 -43.90244,-10.56911 -47.96748,-37.39837 -45.52846,-100 -23.57723,-106.50407 z"
       id="pie_peduncular" /><g
       id="nucleos_mesencefalicos_del_trigemino"><path
         style="fill:#000000"
         d="m -92.18699,-52.33333 -6.50407,19.51219 0.81301,19.5122 12.19512,-13.00813 0.81301,-17.07317 z"
         id="path6" /><path
         style="fill:#000000"
         d="m 87.33333,-52.95935 6.50407,19.51219 -0.81301,19.5122 -12.19512,-13.00813 -0.81301,-17.07317 z"
         id="path6-2" /></g><rect
       style="fill:#000000"
       id="decusacion_de_los_pedunculos_cerebelosos_superiores"
       width="234.95935"
       height="193.49594"
       x="-117.39026"
       y="90.756096" /><path
       style="fill:#000000"
       d="m -94.62602,-53.14634 12.19513,11.38211 -3.25204,17.88618 -13.82114,13.82114 8.94309,29.26829 45.52846,23.57724 5.69106,-10.56911 h 11.38211 l 8.94309,0.81301 2.43902,9.7561 -2.43902,13.82114 33.33333,0.813 -4.87805,-10.5691 V 35.47154 l 8.94309,-4.06504 h 8.13009 8.94308 l 8.13009,4.06504 6.50406,5.69106 30.0813,-15.44715 14.63415,-31.70732 -4.87805,-8.13008 -9.7561,-10.56911 -0.81301,-21.13821 8.13008,-8.94309 -16.26016,-21.13821 -38.21138,-17.88618 -56.91057,-1.62601 -47.15447,18.69918 z"
       id="sustancia_gris_central" /><path
       style="fill:#000000"
       d="m -6.00813,-55.58537 -4.06504,17.88618 -11.38211,5.69106 11.38211,10.56911 3.25203,17.88617 14.63415,-0.813 L 6.18699,-24.69106 17.56911,-28.7561 5.37398,-39.3252 Z"
       id="acueducto_mesencefalico" /></g></svg>
