<?xml version="1.0" encoding="UTF-8" standalone="no"?>
<!-- Created with Inkscape (http://www.inkscape.org/) -->

<svg
   viewBox="0 0 706 545"
   version="1.1"
   id="svg1"
   xml:space="preserve"
   xmlns="http://www.w3.org/2000/svg"
   xmlns:svg="http://www.w3.org/2000/svg"><defs
     id="defs1" /><g
     id="layer1"
     transform="translate(400,134.5)"><g
       id="pedunculos_cerebelosos_superiores"><path
         style="fill:#000000"
         d="m -146.72897,-107.3972 -16.82243,1.86916 -19.62617,21.49533 -11.21495,32.71028 v 20.56075 l 9.34579,11.21495 10.28037,6.54206 11.21496,-1.86916 7.47663,-28.037385 25.23365,-41.121495 0.93458,-14.953271 -7.47664,-4.672899 z"
         id="path1" /><path
         style="fill:#000000"
         d="m 53.093458,-105.6215 16.82243,1.86916 19.62617,21.495335 11.214952,32.71028 v 20.56075 l -9.345792,11.21495 -10.28037,6.54206 -11.21496,-1.86916 -7.47663,-28.03739 -25.23365,-41.12149 -0.93458,-14.95327 7.47664,-4.672905 z"
         id="path1-5" /></g><path
       style="fill:#000000"
       d="m -90.65421,35.59346 16.82243,-4.6729 15.88785,14.01869 11.21496,12.14954 26.16822,-21.49533 12.14954,-1.86916 13.08411,4.6729 29.90654,10.28037 37.38318,-9.34579 4.67289,-28.97197 -19.62616,-52.336446 -37.38318,-55.140186 -72.8972,0.934579 -67.28972,1.869159 -52.33645,103.738314 4.6729,23.36449 19.62617,11.21495 27.1028,-0.93458 z"
       id="cavidad_del_cuarto_ventriculo" /><g
       id="pedunculos_cerebelosos_inferiores"><path
         style="fill:#000000"
         d="m -231.7757,3.81776 -3.73832,12.14953 V 38.3972 l 11.21495,17.75701 15.88786,11.21495 11.21495,-12.14953 -13.08411,-42.05608 -11.21496,-16.82243 z"
         id="path2" /><path
         style="fill:#000000"
         d="m 138.69159,7.2383222 3.73832,12.1495298 v 22.42991 l -11.21495,17.75701 -15.88786,11.21495 -11.21495,-12.14953 13.08411,-42.05608 11.21496,-16.82242976 z"
         id="path2-1" /></g><g
       id="nucleos_vestibulares"><path
         style="fill:#000000"
         d="m -196.26168,2.88318 v 13.08411 11.21495 l 3.73832,14.95327 20.56074,14.0187 8.41122,1.86915 4.6729,-9.34579 -14.95328,-14.95327 -7.47663,-13.08411 V -2.7243 l -5.60748,-3.73832 z"
         id="path3" /><path
         style="fill:#000000"
         d="m 102.51402,7.0514075 v 13.0841095 11.21495 l -3.738319,14.95327 -20.56074,14.0187 -8.41122,1.86915 -4.6729,-9.34579 14.95328,-14.95327 7.47663,-13.08411 V 1.4439275 l 5.60748,-3.73832 z"
         id="path3-1" /></g><path
       style="fill:#000000"
       d="m -71.02804,49.61215 24.29907,33.64486 31.7757,-33.64486 0.93458,-10.28037 -35.51402,22.4299 -17.75701,-20.56075 z"
       id="fasciculo_longitudinal_medial" /><g
       id="lemniscos_mediales"><path
         style="fill:#000000"
         d="m -117.75701,144.00467 h -26.16822 l -7.47664,14.95327 22.42991,23.36449 27.1028,16.82243 32.71028,-4.6729 16.82243,-20.56075 -14.01869,-33.64485 h -27.1028 z"
         id="path4" /><path
         style="fill:#000000"
         d="m 27.364485,144.93924 h 26.16822 l 7.47664,14.95327 -22.42991,23.36449 -27.1028,16.82243 -32.71028,-4.6729 -16.82243,-20.56075 14.01869,-33.64485 H 3.0654152 Z"
         id="path4-2" /></g><path
       style="fill:#000000"
       d="m -71.96262,144.93925 24.29907,17.75701 28.97196,-14.95327 4.6729,44.85981 -32.71028,-17.75701 -23.36449,15.88785 z"
       id="cuerpo_trapezoide" /><g
       id="tracto_y_nucleos_espinales_del_trigemino"><circle
         style="fill:#000000"
         id="path5"
         cx="-183.64485"
         cy="102.41589"
         r="11.682243" /><circle
         style="fill:#000000"
         id="path5-2"
         cx="92.18692"
         cy="104.18224"
         r="11.682243" /><ellipse
         style="fill:#000000"
         id="path6"
         cx="-112.12895"
         cy="194.31848"
         rx="9.8130836"
         ry="21.028038"
         transform="rotate(34.978186)" /><ellipse
         style="fill:#000000"
         id="path6-3"
         cx="-32.332996"
         cy="135.4715"
         rx="9.8130836"
         ry="21.028038"
         transform="matrix(-0.81937036,0.57326452,0.57326452,0.81937036,0,0)" /></g><g
       id="nucleos_del_nervio_abducens"><ellipse
         style="fill:#000000"
         id="path7"
         cx="-83.644867"
         cy="68.771027"
         rx="12.616822"
         ry="15.420561" /><ellipse
         style="fill:#000000"
         id="path7-4"
         cx="-8.8504686"
         cy="69.228966"
         rx="12.616822"
         ry="15.420561" /></g><g
       id="nucleos_del_nervio_facial"><ellipse
         style="fill:#000000"
         id="path8"
         cx="-128.50467"
         cy="126.24765"
         rx="12.616822"
         ry="11.214953" /><ellipse
         style="fill:#000000"
         id="path8-7"
         cx="34.08411"
         cy="125.56541"
         rx="12.616822"
         ry="11.214953" /></g><path
       style="fill:#000000"
       d="m -97.19626,226.24766 46.72897,-19.62616 57.00935,19.62616 10.28037,48.59813 -32.71028,6.54206 -22.42991,14.95327 -0.93458,20.56075 43.92524,85.98131 -27.10281,6.54205 -20.56074,-13.08411 -25.23365,1.86916 -22.42991,8.41122 23.36449,-93.45795 4.6729,-10.28037 -7.47664,-17.75701 -23.36448,-6.54206 z"
       id="nucleos_pontinos" /><g
       id="haces_de_fibras_corticoespinales_y_corticonucleares"><ellipse
         style="fill:#000000"
         id="path9"
         cx="-120.56075"
         cy="308.02335"
         rx="63.551403"
         ry="34.112148" /><ellipse
         style="fill:#000000"
         id="path9-6"
         cx="20.130846"
         cy="309.21964"
         rx="63.551403"
         ry="34.112148" /></g><g
       id="fibras_pontinas_transversas"><path
         style="fill:#000000"
         d="m -375.70094,17.83645 113.08412,136.4486 104.67289,68.2243 63.55141,-0.93458 34.57944,-11.21496 -42.99066,16.82243 11.21495,50.46729 -30.84112,-6.54205 -46.72897,8.41121 -16.82243,26.16823 12.14953,24.29906 46.72898,14.95327 52.33644,-11.21495 -19.62616,71.02804 -35.51402,-9.3458 -109.3458,-68.2243 -161.68224,-169.15888 z"
         id="path10" /><path
         style="fill:#000000"
         d="M 276.85982,22.378505 163.7757,158.8271 59.102813,227.0514 -4.4485974,226.11682 -39.028037,214.90186 l 42.9906596,16.82243 -11.21495,50.46729 30.8411204,-6.54205 46.72897,8.41121 16.82243,26.16823 -12.14953,24.29906 -46.72898,14.95327 -52.33644,-11.21495 19.6261596,71.02804 35.5140204,-9.3458 109.345797,-68.2243 161.68224,-169.15888 z"
         id="path10-6" /></g></g></svg>
