<?xml version="1.0" encoding="UTF-8" standalone="no"?>
<!-- Created with Inkscape (http://www.inkscape.org/) -->

<svg
   viewBox="0 0 624 475"
   version="1.1"
   id="svg1"
   xml:space="preserve"
   xmlns="http://www.w3.org/2000/svg"
   xmlns:svg="http://www.w3.org/2000/svg"><defs
     id="defs1" /><g
     id="layer1"
     transform="translate(164.0789,-156.2115)"><path
       style="fill:#00ffff;stroke-width:0.860476"
       d="m 151.58381,556.20735 -13.90944,2.45211 -13.90945,15.20302 -10.59767,25.50185 0.66236,12.26051 35.10478,-49.04203 5.29884,0.49043 23.18241,39.23361 13.24709,9.31799 -10.59768,-37.27194 -19.20828,-17.65513 z"
       id="nucleos_arcuatos" /><path
       style="fill:#000000"
       d="m -9.22176,568.2115 98.85715,-49.71429 44,-11.42857 20,-1.71428 37.14285,6.28571 52,21.14286 62.85715,33.71428 -5.14286,14.85715 -26.28572,27.42857 -31.42857,11.42857 -51.42857,-10.28571 -10.85714,-36 -22.28572,-17.71429 -9.71428,-49.71429 -8.57143,51.42858 -13.71429,13.14285 -12,21.71429 0.57143,16 -55.42857,12.57143 -18.28571,-5.14286 -31.42857,-20 z"
       id="piramides" /><g
       id="nucleos_olivares_inferiores"><path
         style="fill:#000000"
         d="m 243.34967,384.78293 -16,2.28571 -9.71428,6.85715 5.71428,6.85714 9.71429,3.42857 1.71428,11.42857 5.14286,10.28572 22.85714,-9.14286 14.28572,-1.14286 8,10.85714 -9.71429,12 -7.42857,6.28572 0.57143,12 14.28571,-7.42857 h 3.42857 l -3.42857,10.85714 -8.57143,14.85714 4.57143,2.85715 8.57143,-6.28572 2.85714,4.57143 -2.28571,13.71429 10.85714,5.14285 7.42857,-3.42857 4.57143,-9.71428 h 5.71429 l 4,8.57142 -5.14286,13.71429 4,4 16.57143,-5.14286 4,9.71429 -14.28571,2.85714 -3.42858,4.57143 -11.42857,-9.14286 -8.57143,0.57143 -2.85714,12.57143 -7.42857,-3.42857 2.85714,-14.85714 -9.71428,-6.28572 -4,7.42857 h -4 l -1.14286,-13.14285 -22.28571,-9.71429 -5.14286,7.42857 2.85714,7.42857 4,3.42857 6.85714,-4 4,1.14286 -0.57142,8 -5.71429,4 -14.28571,-9.14286 -6.28572,-8 0.57143,-12 6.85714,-13.71428 -3.42857,-6.85714 h -9.14286 l -8.57142,-12.57143 -12,2.28571 -2.85715,5.14286 5.71429,13.71428 -2.85714,5.71429 -6.28572,-4 -6.28571,-28 h -5.71429 l -3.42857,7.42857 9.14286,29.14286 9.14285,13.14286 6.85715,-1.14286 3.42857,-1.71429 v -17.71428 -2.85715 h 4.57143 l 2.85714,5.14286 6.85714,-1.14286 2.85715,6.85715 -12,13.14285 v 12 l 4,7.42858 6.28571,-2.85715 12,9.71429 10.28571,4 8.57143,-8 6.28572,4 2.85714,1.14286 9.14286,-7.42858 4,14.85715 4,5.14285 14.85714,2.28572 2.85714,-9.71429 9.71429,8 17.71428,-4 9.71429,-0.57143 9.71429,-13.71428 v -14.85714 l -0.57143,-10.85715 -10.28572,-3.42857 -9.14285,8 -11.42858,-5.71428 1.71429,-28.57143 -4.57143,-2.28572 -10.85714,5.71429 -2.85714,11.42857 -5.71429,4.57143 h -5.71429 v -18.28572 h -4.57142 l 1.71428,-6.85714 5.14286,-4 -3.42857,-13.14286 5.14285,-8 -9.71428,-16 -10.28572,-9.14285 -19.42857,-0.57143 -16,6.28571 -2.85714,-2.85714 8,-17.14286 -2.85714,-5.71428 z"
         id="path1" /><path
         style="fill:#000000"
         d="m 55.20682,383.92579 16,2.28571 9.71428,6.85715 -5.71428,6.85714 -9.71429,3.42857 -1.71428,11.42857 -5.14286,10.28572 -22.85714,-9.14286 -14.28572,-1.14286 -8,10.85714 9.71429,12 7.42857,6.28572 -0.57143,12 -14.28571,-7.42857 h -3.42857 l 3.42857,10.85714 8.57143,14.85714 -4.57143,2.85715 -8.57143,-6.28572 -2.85714,4.57143 2.28571,13.71429 -10.85714,5.14285 -7.42857,-3.42857 -4.57143,-9.71428 h -5.71429 l -4,8.57142 5.14286,13.71429 -4,4 -16.57143,-5.14286 -4,9.71429 14.28571,2.85714 3.42858,4.57143 11.42857,-9.14286 8.57143,0.57143 2.85714,12.57143 7.42857,-3.42857 -2.85714,-14.85714 9.71428,-6.28572 4,7.42857 h 4 l 1.14286,-13.14285 22.28571,-9.71429 5.14286,7.42857 -2.85714,7.42857 -4,3.42857 -6.85714,-4 -4,1.14286 0.57142,8 5.71429,4 14.28571,-9.14286 6.28572,-8 -0.57143,-12 -6.85714,-13.71428 3.42857,-6.85714 h 9.14286 l 8.57142,-12.57143 12,2.28571 2.85715,5.14286 -5.71429,13.71428 2.85714,5.71429 6.28572,-4 6.28571,-28 h 5.71429 l 3.42857,7.42857 -9.14286,29.14286 -9.14285,13.14286 -6.85715,-1.14286 -3.42857,-1.71429 v -17.71428 -2.85715 h -4.57143 l -2.85714,5.14286 -6.85714,-1.14286 -2.85715,6.85715 12,13.14285 v 12 l -4,7.42858 -6.28571,-2.85715 -12,9.71429 -10.28571,4 -8.57143,-8 -6.28572,4 -2.85714,1.14286 -9.14286,-7.42858 -4,14.85715 -4,5.14285 -14.85714,2.28572 -2.85714,-9.71429 -9.71429,8 -17.71428,-4 -9.71429,-0.57143 -9.71429,-13.71428 v -14.85714 l 0.57143,-10.85715 10.28572,-3.42857 9.14285,8 11.42858,-5.71428 -1.71429,-28.57143 4.57143,-2.28572 10.85714,5.71429 2.85714,11.42857 5.71429,4.57143 H 0.34968 V 461.64007 H 4.9211 l -1.71428,-6.85714 -5.14286,-4 3.42857,-13.14286 -5.14285,-8 9.71428,-16 10.28572,-9.14285 19.42857,-0.57143 16,6.28571 2.85714,-2.85714 -8,-17.14286 2.85714,-5.71428 z"
         id="path1-5" /></g><path
       style="fill:#000000"
       d="m 122.20681,348.78293 53.14286,-1.71429 4,134.85715 -6.28571,15.42857 -14.85715,5.71428 -12.57142,2.85715 -15.42858,-9.71429 -11.42857,-15.42857 z"
       id="lemnisco_medial" /><path
       style="fill:#000000"
       d="m 125.06396,267.06864 h 47.42857 l 2.28571,80 -52.57143,-0.57143 z"
       id="tracto_tectoespinal" /><path
       style="fill:#000000"
       d="m 174.20681,264.78293 -9.14285,-24 -9.71429,-5.71429 -10.85714,2.28572 -8,6.28571 -6.28572,14.28572 -5.14285,8.57142 z"
       id="fasciculo_longitudinal_medial" /><g
       id="penduculos_cerebelosos_inferiores"><path
         style="fill:#000000"
         d="m 388.49253,230.49721 -10.28572,21.71429 -6.85714,37.14286 6.85714,39.42857 27.42858,42.28571 32.57142,26.85715 11.42858,-29.71429 -2.85715,-19.42857 14.28572,-24.57143 -9.71429,-46.85714 -8,-10.85715 -24.57143,-22.85714 -21.14285,-14.85714 z"
         id="path2" /><path
         style="fill:#000000"
         d="m -92.078899,233.78292 10.28572,21.71429 6.85714,37.14286 -6.85714,39.42857 -27.428581,42.28571 -32.57142,26.85715 -11.42858,-29.71429 2.85715,-19.42857 -14.28572,-24.57143 9.71429,-46.85714 8,-10.85715 24.57143,-22.85714 21.14285,-14.85714 z"
         id="path2-1" /></g><path
       style="fill:#000000"
       d="m 32.49253,177.92579 226.28571,-3.42858 -13.14285,7.42858 -9.71429,7.42857 -9.14286,9.71428 -14.28571,-1.71428 -6.85714,3.42857 -2.28572,9.14286 -30.85714,-1.71429 -10.28572,6.28571 -9.71428,18.28572 -13.14286,-21.14286 -14.28571,-4 -24,2.85714 -17.71429,-12.57142 -12.57143,0.57142 -12,-13.71428 z"
       id="cavidad_del_cuarto_ventriculo" /><g
       id="nucleos_vagales_dorsales"><ellipse
         style="fill:#000000"
         id="path3"
         cx="75.921097"
         cy="216.78293"
         rx="8.5714283"
         ry="8" /><ellipse
         style="fill:#000000"
         id="path3-2"
         cx="222.49252"
         cy="216.78291"
         rx="8.5714283"
         ry="8" /></g><g
       id="nucleos_hipoglosos"><ellipse
         style="fill:#000000"
         id="path4"
         cx="117.06395"
         cy="226.78293"
         rx="9.1428576"
         ry="10" /><ellipse
         style="fill:#000000"
         id="path4-7"
         cx="184.9211"
         cy="227.49722"
         rx="9.1428576"
         ry="10" /></g><g
       id="nucleos_vestibulares_mediales"><ellipse
         style="fill:#000000"
         id="path5"
         cx="27.921104"
         cy="215.06865"
         rx="26.857143"
         ry="24.571428" /><ellipse
         style="fill:#000000"
         id="path5-3"
         cx="270.49252"
         cy="216.06865"
         rx="26.857143"
         ry="24.571428" /></g><g
       id="nucleos_vestibulares_laterales"><path
         style="fill:#000000"
         d="m -46.36461,221.92579 13.71428,9.14285 10.85714,25.14286 6.28572,30.28571 -6.28572,26.85715 -21.14285,10.85714 -19.42857,-12.57143 -12.000004,-50.28571 9.142857,-30.85715 z"
         id="path6" /><path
         style="fill:#000000"
         d="m 343.34967,221.2115 -13.71428,9.14285 -10.85714,25.14286 -6.28572,30.28571 6.28572,26.85715 21.14285,10.85714 19.42857,-12.57143 12,-50.28571 -9.14285,-30.85715 z"
         id="path6-41" /></g><g
       id="nucleos_cocleares_posteriores"><path
         style="fill:#000000"
         d="m -123.50747,220.2115 8,4 2.28571,8.57143 -32,29.71428 15.42857,-33.71428 z"
         id="path7" /><path
         style="fill:#000000"
         d="m 422.9211,221.92579 -8,4 -2.28571,8.57143 32,29.71428 -15.42857,-33.71428 z"
         id="path7-1" /></g><g
       id="tractos_y_nucleos_espinales_del_trigemino"><ellipse
         style="fill:#000000"
         id="path8"
         cx="28.716925"
         cy="360.81006"
         rx="16.118422"
         ry="27.302631"
         transform="rotate(17.13832)" /><ellipse
         style="fill:#000000"
         id="path8-0"
         cx="-252.52066"
         cy="453.6282"
         rx="16.118422"
         ry="27.302631"
         transform="matrix(-0.95559614,0.2946795,0.2946795,0.95559614,0,0)" /></g><g
       id="nucleos_ambiguos"><ellipse
         style="fill:#000000"
         id="path9"
         cx="2.6974223"
         cy="347.65887"
         rx="11.513158"
         ry="11.842105" /><ellipse
         style="fill:#000000"
         id="path9-2"
         cx="301.09216"
         cy="344.73782"
         rx="11.513158"
         ry="11.842105" /></g><g
       id="nucleos_cocleares_anteriores"><ellipse
         style="fill:#000000"
         id="path10"
         cx="-120.81513"
         cy="395.79044"
         rx="20.003679"
         ry="7.9084311" /><ellipse
         style="fill:#000000"
         id="path10-0"
         cx="-420.48193"
         cy="395.60712"
         rx="20.003679"
         ry="7.9084311"
         transform="scale(-1,1)" /></g><g
       id="tractos_espinocerebelosos_anteriores"><path
         style="fill:#000000"
         d="m -64.525708,451.14946 6.512828,-18.60807 -4.65202,-22.32969 -13.025652,-10.23444 -23.260092,-0.9304 17.67767,8.37363 9.304036,16.74726 4.652019,14.88646 z"
         id="path11" /><path
         style="fill:#000000"
         d="m 359.27306,453.49724 -6.51283,-18.60807 4.65202,-22.32969 13.02566,-10.23444 23.26009,-0.9304 -17.67767,8.37363 -9.30404,16.74726 -4.65202,14.88646 z"
         id="path11-1" /></g><g
       id="nucleos_olivares_accesorios_dorsales"><ellipse
         style="fill:#000000"
         id="path12"
         cx="-60.945732"
         cy="374.21832"
         rx="14.421257"
         ry="5.5824218"
         transform="rotate(-16.885782)" /><ellipse
         style="fill:#000000"
         id="path12-4"
         cx="-343.86179"
         cy="286.47107"
         rx="14.421257"
         ry="5.5824218"
         transform="matrix(-0.95688569,-0.29046475,-0.29046475,0.95688569,0,0)" /></g><g
       id="tractos_espinotalamicos_laterales"><ellipse
         style="fill:#000000"
         id="path13"
         cx="-19.401129"
         cy="409.28128"
         rx="21.864487"
         ry="15.816862" /><ellipse
         style="fill:#000000"
         id="path13-6"
         cx="323.61737"
         cy="409.95874"
         rx="21.864487"
         ry="15.816862" /></g><g
       id="nucleos_olivares_accesorios_mediales"><ellipse
         style="fill:#000000;stroke-width:1.19237"
         id="path14"
         cx="380.418"
         cy="383.82382"
         rx="4.0423579"
         ry="17.506403"
         transform="matrix(0.87419624,0.48557279,-0.59692404,0.80229776,0,0)" /><ellipse
         style="fill:#000000;stroke-width:1.19237"
         id="path14-6"
         cx="138.91702"
         cy="531.42932"
         rx="4.0423579"
         ry="17.506403"
         transform="matrix(-0.87419624,0.48557279,0.59692404,0.80229776,0,0)" /></g></g></svg>
