<?xml version="1.0" encoding="UTF-8" standalone="no"?>
<!-- Created with Inkscape (http://www.inkscape.org/) -->

<svg
   viewBox="0 0 407 378"
   version="1.1"
   id="svg1"
   xml:space="preserve"
   xmlns="http://www.w3.org/2000/svg"
   xmlns:svg="http://www.w3.org/2000/svg"><defs
     id="defs1" /><g
     id="layer1"
     transform="translate(21.989004,-77.509705)"><g
       id="nucleos_espinales_del_trigemino"><ellipse
         style="fill:#000000;stroke-width:1.5012"
         id="path1"
         cx="168.27519"
         cy="177.05708"
         rx="33.949806"
         ry="56.846275"
         transform="matrix(0.91641144,0.40023752,-0.58739067,0.80930353,0,0)" /><ellipse
         style="fill:#000000;stroke-width:1.5248"
         id="path1-5"
         cx="-141.67612"
         cy="338.36292"
         rx="34.608521"
         ry="57.531696"
         transform="matrix(-0.91853907,0.39533022,0.59302739,0.80518229,0,0)" /></g><g
       id="tractos_espinotalamicos"><path
         style="fill:#000000"
         d="m -0.793661,272.24191 13.247089,11.92239 15.234153,15.23416 16.558861,24.50711 6.623545,36.4295 -1.987063,19.87063 -35.767141,-25.16947 -4.636482,-56.96248 z"
         id="path2" /><path
         style="fill:#000000"
         d="m 377.71605,268.74515 -13.24709,11.92239 -15.23415,15.23416 -16.55886,24.50711 -6.62355,36.4295 1.98707,19.87063 35.76714,-25.16947 4.63648,-56.96248 z"
         id="path2-1" /></g><g
       id="tracto_espinocerebeloso_posterior"><path
         style="fill:#000000"
         d="m -19.339586,240.4489 13.247089,19.87063 8.610608,17.22122 6.623545,27.15653 3.974127,51.00129 -8.610608,0.66236 -19.870634,-47.68951 -1.987064,-23.18241 z"
         id="path3" /><path
         style="fill:#000000;stroke-width:0.908656"
         d="m 386.63196,249.01681 -10.81395,20.09772 -7.02907,17.41804 -5.40697,27.46689 -3.24419,51.58416 7.02907,0.66993 16.22092,-48.23453 1.62209,-23.44735 z"
         id="path3-1" /></g><g
       id="tracto_espinocerebeloso_anterior"><path
         style="fill:#000000"
         d="M 3.180466,357.02328 20.401682,384.84217 73.390039,430.54463 60.805304,397.42691 46.233506,377.55627 13.778137,351.72445 Z"
         id="rrw" /><path
         style="fill:#000000"
         d="m 368.77167,366.92756 -17.22122,27.81889 -52.98835,45.70246 12.58474,-33.11772 14.57179,-19.87064 32.45537,-25.83182 z"
         id="path4-2" /></g><path
       style="fill:#000000"
       d="m 126.3784,237.13713 64.24838,75.5084 59.6119,-73.52134 18.54593,-3.97413 27.15653,21.19535 15.23415,29.80595 -15.23415,27.15653 h -7.2859 l -51.66364,58.94955 74.84605,85.44372 -107.96378,-1.32471 -13.90944,-28.48124 -56.96249,31.13066 -64.910737,-3.97413 68.884867,-88.09314 -70.209576,-80.80724 9.272963,-25.83183 23.844759,-21.8577 z"
       id="decusacion_de_las_piramides" /><path
       style="fill:#000000"
       d="m 169.43144,204.0194 -9.27296,-84.78136 11.26002,-13.90945 17.22122,3.97413 2.64942,15.89651 5.96119,-17.88357 h 13.24709 l 8.6106,13.24709 -7.28589,51.00129 -7.2859,25.83183 3.97412,15.8965 29.80595,-7.94825 17.88357,-3.31177 11.26003,5.29883 9.27296,9.27297 -6.62354,7.94825 -25.16947,1.32471 -15.89651,9.27296 -3.97413,27.81889 -35.10478,47.02717 -43.05304,-49.67659 -1.98707,-19.20828 -18.54592,-16.55886 -21.8577,-1.32471 -2.64942,-13.24709 19.87064,-7.2859 38.41656,11.92238 z"
       id="nucleos_gracil_y_cuneiforme" /><g
       id="tractos_espinales_del_trigemino"><path
         style="fill:#000000"
         d="m 66.10414,162.29108 -33.780078,-0.66236 -35.104787,37.09185 5.961191,25.83182 17.221216,-31.79301 24.507115,-22.52005 z"
         id="path7" /><path
         style="fill:#000000"
         d="m 312.48318,166.79691 33.78008,-0.66237 35.10479,37.09185 -5.9612,25.83182 -17.22121,-31.79301 -24.50712,-22.52005 z"
         id="path7-7" /></g></g></svg>
